# xmcd CD database file
#
# Track frame offsets:
#	150
#	11175
#	27425
#	42295
#	61745
#	77973
#	90995
#	108930
#	123375
#	137043
#	151625
#	166885
#	187891
#	199091
#	216851
#	234806
#	247175
#	267735
#
# Disc length: 3706 seconds
#
# Revision: 2
# Processed by: cddbd v1.5.1PL0 Copyright (c) Steve Scherf et al.
# Submitted via: CDex 1.51
#
DISCID=ed0e7812
DTITLE=Various Artist - Unforgettable 3
DYEAR=2002
DGENRE=Jazz
TTITLE0=1Dinah Washington- Everybody Loves Somebody
TTITLE1=2Nina Simone- My Baby Just Cares for Me
TTITLE2=3Peggy Lee- Fever
TTITLE3=4Helen Merrill and Clifford Brown- You'd Be So Nice To Come Home To
TTITLE4=5Ella Fitzgerald- It's Only a Paper Moon
TTITLE5=6Nat King Cole- Nature Boy
TTITLE6=7Billie Holiday- God Bless the Child
TTITLE7=8Ella Fitzgerald- Blue Moon
TTITLE8=9Fred Astaire- I Won't Dance
TTITLE9=10Louis Armstrong and Billie Holiday- You Can't Lose a Broken Heart
TTITLE10=11Louis Jordan- Is You Is Or Is You Ain't
TTITLE11=12Dr. John- Blue Skies
TTITLE12=13Astrud Gilberto- The Shadow of Your Smile
TTITLE13=14Diane Schuur- Crazy
TTITLE14=15Etta James- These Foolish Things (Remind Me of You)
TTITLE15=16Johnny Hartman- In the Wee Small Hours of the Morning
TTITLE16=17Chet Baker and Ruth Young- Autumn Leaves
TTITLE17=18Louis Armstrong- What a Wonderful World
EXTD=YEAR: 2002
EXTT0=
EXTT1=
EXTT2=
EXTT3=
EXTT4=
EXTT5=
EXTT6=
EXTT7=
EXTT8=
EXTT9=
EXTT10=
EXTT11=
EXTT12=
EXTT13=
EXTT14=
EXTT15=
EXTT16=
EXTT17=
PLAYORDER=
